<?xml version="1.0" encoding="UTF-8"?>
<svg xmlns="http://www.w3.org/2000/svg" viewBox="0 0 512 512" role="img" aria-label="njoooy">
  <title>njoooy</title>
  <!-- v7.10 favicon: Fraunces italic 'n' letterform + breathing dot. R-7 遵守、タイポ配置のみ。 -->
  <rect width="512" height="512" fill="#F5F0E6"/>
  <g transform="translate(256.0 256.0) scale(0.2692 -0.2692) translate(-629.50 -465.00)">
    <path d="M112 682Q95 690 94.5 713.0Q94 736 112 770Q157 855 247.0 906.0Q337 957 455 957Q529 957 569.0 927.0Q609 897 609 840Q609 806 593.5 763.5Q578 721 556.0 671.5Q534 622 511.0 565.5Q488 509 474 447L450 467Q505 606 574.0 700.5Q643 795 718.5 851.5Q794 908 869.0 932.5Q944 957 1009 957Q1101 957 1144.5 917.0Q1188 877 1190.0 806.0Q1192 735 1159 641L1048 325Q1023 253 1030.0 225.0Q1037 197 1060 197Q1073 197 1086.5 204.0Q1100 211 1121 229Q1142 248 1155.5 251.5Q1169 255 1182 248Q1199 240 1199.5 217.0Q1200 194 1182 159Q1138 75 1049.5 24.0Q961 -27 844 -27Q757 -27 715.0 8.0Q673 43 671.0 107.0Q669 171 699 256L810 575Q839 652 831.5 687.5Q824 723 779 723Q748 723 711.5 702.5Q675 682 637.0 643.0Q599 604 565.0 547.0Q531 490 503 417Q484 364 471.0 326.0Q458 288 451.5 261.5Q445 235 445 215Q445 184 455.5 160.0Q466 136 466 103Q466 44 393.5 8.5Q321 -27 192 -27Q99 -27 79.0 34.0Q59 95 100 206L246 605Q273 677 265.0 705.0Q257 733 235 733Q222 733 208.0 726.0Q194 719 173 700Q152 683 138.5 679.5Q125 676 112 682Z" fill="#6B2024"/>
  </g>
  <!-- breathing dot (gold), lower-right corner -->
  <circle cx="455.7" cy="455.7" r="25.6" fill="#C28B5B"/>
</svg>
